<?xml version="1.0" encoding="UTF-8" standalone="no"?>
<!DOCTYPE svg PUBLIC "-//W3C//DTD SVG 1.0//EN"
 "http://www.w3.org/TR/2001/REC-SVG-20010904/DTD/svg10.dtd">
<!-- Generated by dot version 2.2.1 (Thu Apr  6 00:32:47 UTC 2006)
     For user: (aoleg) Oleg Alexandrov,,,   Title: T    Pages: 1 -->
<svg width="246pt" height="264pt"
 viewBox = "-1 -1 245 263"
 xmlns="http://www.w3.org/2000/svg">
<g id="graph0" class="graph" style="font-family:Times-Roman;font-size:14.00;">
<title>T</title>
<g id="node1" class="node"><title>A</title>
<ellipse cx="50" cy="22" rx="27" ry="18" style="fill:none;stroke:black;"/>
<text text-anchor="middle" x="50" y="27">A</text>
</g>
<g id="node3" class="node"><title>C</title>
<ellipse cx="32" cy="94" rx="27" ry="18" style="fill:none;stroke:black;"/>
<text text-anchor="middle" x="32" y="99">C</text>
</g>
<g id="edge2" class="edge"><title>A&#45;&gt;C</title>
<path style="fill:none;stroke:black;" d="M46,40C44,48 41,57 39,66"/>
<polygon style="fill:black;stroke:black;" points="42,67 36,76 36,65 42,67"/>
</g>
<g id="node5" class="node"><title>D</title>
<ellipse cx="104" cy="94" rx="27" ry="18" style="fill:none;stroke:black;"/>
<text text-anchor="middle" x="104" y="99">D</text>
</g>
<g id="edge4" class="edge"><title>A&#45;&gt;D</title>
<path style="fill:none;stroke:black;" d="M62,38C69,47 78,59 86,70"/>
<polygon style="fill:black;stroke:black;" points="89,68 92,78 83,72 89,68"/>
</g>
<g id="node11" class="node"><title>F</title>
<ellipse cx="68" cy="166" rx="27" ry="18" style="fill:none;stroke:black;"/>
<text text-anchor="middle" x="68" y="171">F</text>
</g>
<g id="edge10" class="edge"><title>D&#45;&gt;F</title>
<path style="fill:none;stroke:black;" d="M95,111C91,120 86,130 81,140"/>
<polygon style="fill:black;stroke:black;" points="84,141 77,149 78,138 84,141"/>
</g>
<g id="node13" class="node"><title>G</title>
<ellipse cx="140" cy="166" rx="27" ry="18" style="fill:none;stroke:black;"/>
<text text-anchor="middle" x="140" y="171">G</text>
</g>
<g id="edge12" class="edge"><title>D&#45;&gt;G</title>
<path style="fill:none;stroke:black;" d="M113,111C117,120 122,130 127,140"/>
<polygon style="fill:black;stroke:black;" points="130,138 131,149 124,141 130,138"/>
</g>
<g id="node6" class="node"><title>B</title>
<ellipse cx="158" cy="22" rx="27" ry="18" style="fill:none;stroke:black;"/>
<text text-anchor="middle" x="158" y="27">B</text>
</g>
<g id="edge6" class="edge"><title>B&#45;&gt;D</title>
<path style="fill:none;stroke:black;" d="M146,38C139,47 130,59 122,70"/>
<polygon style="fill:black;stroke:black;" points="125,72 116,78 119,68 125,72"/>
</g>
<g id="node9" class="node"><title>E</title>
<ellipse cx="176" cy="94" rx="27" ry="18" style="fill:none;stroke:black;"/>
<text text-anchor="middle" x="176" y="99">E</text>
</g>
<g id="edge8" class="edge"><title>B&#45;&gt;E</title>
<path style="fill:none;stroke:black;" d="M162,40C164,48 167,57 169,66"/>
<polygon style="fill:black;stroke:black;" points="172,65 172,76 166,67 172,65"/>
</g>
<g id="node15" class="node"><title>I</title>
<ellipse cx="176" cy="238" rx="27" ry="18" style="fill:none;stroke:black;"/>
<text text-anchor="middle" x="176" y="243">I</text>
</g>
<g id="edge14" class="edge"><title>G&#45;&gt;I</title>
<path style="fill:none;stroke:black;" d="M149,183C153,192 158,202 163,212"/>
<polygon style="fill:black;stroke:black;" points="166,210 167,221 160,213 166,210"/>
</g>
<g id="node16" class="node"><title>H</title>
<ellipse cx="212" cy="166" rx="27" ry="18" style="fill:none;stroke:black;"/>
<text text-anchor="middle" x="212" y="171">H</text>
</g>
<g id="edge16" class="edge"><title>H&#45;&gt;I</title>
<path style="fill:none;stroke:black;" d="M203,183C199,192 194,202 189,212"/>
<polygon style="fill:black;stroke:black;" points="192,213 185,221 186,210 192,213"/>
</g>
</g>
</svg>
